<?xml version="1.0"?>
<svg xmlns="http://www.w3.org/2000/svg" viewBox="0 0 50 50">
    <path style="fill: #64a19d;text-indent:0;text-align:start;line-height:normal;text-transform:none;block-progression:tb;-inkscape-font-specification:Sans" d="M 21.8125 2 C 20.865898 2 20.030104 2.6659435 19.84375 3.59375 L 19.375 5.9375 C 16.27894 6.8510553 13.490899 8.4196178 11.21875 10.59375 L 9.03125 9.84375 C 8.1423122 9.5428485 7.1654481 9.9443589 6.6875 10.75 L 3.5 16.25 C 3.027264 17.070336 3.1933098 18.124684 3.90625 18.75 L 5.65625 20.3125 C 5.2868322 21.820635 5 23.369737 5 25 C 5 26.630263 5.2875934 28.179634 5.65625 29.6875 L 3.90625 31.25 C 3.1957588 31.875153 3.0276126 32.930269 3.5 33.75 L 6.65625 39.25 C 7.1297552 40.071671 8.1338371 40.460694 9.03125 40.15625 L 11.21875 39.40625 C 13.491583 41.580262 16.279712 43.148938 19.375 44.0625 L 19.84375 46.40625 C 20.031775 47.332522 20.865898 48 21.8125 48 L 28.1875 48 C 29.134102 48 29.969896 47.334057 30.15625 46.40625 L 30.625 44.0625 C 33.72106 43.148945 36.509101 41.580382 38.78125 39.40625 L 40.96875 40.15625 C 41.857688 40.457152 42.834552 40.055641 43.3125 39.25 L 46.5 33.75 C 46.972387 32.930269 46.804241 31.875153 46.09375 31.25 L 44.34375 29.6875 C 44.712407 28.179634 45 26.630263 45 25 C 45 23.369737 44.712407 21.820366 44.34375 20.3125 L 46.09375 18.75 C 46.804241 18.124847 46.972387 17.069731 46.5 16.25 L 43.34375 10.75 C 42.870245 9.9283293 41.866163 9.5393061 40.96875 9.84375 L 38.78125 10.59375 C 36.508417 8.4197383 33.720288 6.8510623 30.625 5.9375 L 30.15625 3.59375 C 29.968225 2.6674776 29.134102 2 28.1875 2 L 21.8125 2 z M 21.8125 4 L 28.1875 4 L 28.75 6.8125 L 28.875 7.4375 L 29.46875 7.59375 C 32.702789 8.4231122 35.580452 10.095603 37.84375 12.40625 L 38.28125 12.875 L 38.90625 12.65625 L 41.59375 11.75 L 44.78125 17.25 L 42.625 19.15625 L 42.15625 19.5625 L 42.3125 20.15625 C 42.743644 21.704753 43 23.32725 43 25 C 43 26.67275 42.743644 28.295247 42.3125 29.84375 L 42.15625 30.4375 L 42.625 30.84375 L 44.78125 32.75 L 41.59375 38.25 L 38.875 37.34375 L 38.28125 37.125 L 37.84375 37.59375 C 35.581548 39.904245 32.703791 41.576874 29.46875 42.40625 L 28.875 42.5625 L 28.75 43.1875 L 28.1875 46 L 21.8125 46 L 21.25 43.1875 L 21.125 42.5625 L 20.53125 42.40625 C 17.297211 41.576888 14.419548 39.904397 12.15625 37.59375 L 11.71875 37.125 L 11.09375 37.34375 L 8.40625 38.25 L 5.21875 32.75 L 7.375 30.84375 L 7.84375 30.4375 L 7.6875 29.84375 C 7.2563556 28.295247 7 26.67275 7 25 C 7 23.32725 7.2555006 21.704406 7.6875 20.15625 L 7.84375 19.5625 L 7.375 19.15625 L 5.21875 17.25 L 8.40625 11.75 L 11.125 12.65625 L 11.71875 12.875 L 12.15625 12.40625 C 14.418452 10.095755 17.296209 8.4231261 20.53125 7.59375 L 21.125 7.4375 L 21.25 6.8125 L 21.8125 4 z M 34.90625 17.96875 A 1.0001 1.0001 0 0 0 34.78125 18 L 34 18 A 1.0001 1.0001 0 0 0 33.90625 18 A 1.001098 1.001098 0 0 0 34 20 L 34 30 A 1.0001 1.0001 0 0 0 33.90625 30 A 1.001098 1.001098 0 0 0 34 32 L 34.8125 32 L 35.21875 32 L 36 32 A 1.0001 1.0001 0 1 0 36 30 L 36 20 A 1.0001 1.0001 0 1 0 36 18 L 35.1875 18 A 1.0001 1.0001 0 0 0 34.90625 17.96875 z M 16.375 18 A 1.0001 1.0001 0 0 0 15.53125 18.71875 L 12.03125 30.09375 A 1.0001 1.0001 0 0 0 12 30.40625 L 12 31 A 1.0001 1.0001 0 1 0 14 31 L 14 30.59375 L 14.5 29 L 18.5 29 L 19 30.59375 L 19 31 A 1.0001 1.0001 0 1 0 21 31 L 21 30.40625 A 1.0001 1.0001 0 0 0 20.96875 30.09375 L 17.46875 18.71875 A 1.0001 1.0001 0 0 0 16.375 18 z M 23.8125 18 A 1.0001 1.0001 0 0 0 23 19 L 23 25.8125 A 1.0001 1.0001 0 0 0 23 26.21875 L 23 31 A 1.0001 1.0001 0 1 0 25 31 L 25 27 L 28 27 C 29.64497 27 31 25.64497 31 24 L 31 21 C 31 19.35503 29.64497 18 28 18 L 24 18 A 1.0001 1.0001 0 0 0 23.90625 18 A 1.0001 1.0001 0 0 0 23.8125 18 z M 25 20 L 28 20 C 28.56503 20 29 20.43497 29 21 L 29 24 C 29 24.56503 28.56503 25 28 25 L 25 25 L 25 20 z M 16.5 22.4375 L 17.90625 27 L 15.09375 27 L 16.5 22.4375 z"/>
</svg>
